# xmcd CD database file
#
# Track frame offsets:
#	150
#	29025
#	62670
#	115946
#	134022
#	162143
#	189566
#	210532
#	231542
#	266695
#
# Disc length: 3939 seconds
#
# Revision: 2
# Processed by: cddbd v1.5.2PL0 Copyright (c) Steve Scherf et al.
# Submitted via: CDex 1.70beta2
#
DISCID=980f610a
DTITLE=Nicholas Payton - Into The Blue
DYEAR=2008
DGENRE=Jazz
TTITLE0=Drucilla
TTITLE1=Let It Ride
TTITLE2=Triptych
TTITLE3=Chinatown
TTITLE4=The Crimson Touch
TTITLE5=The Backward Step
TTITLE6=Nida
TTITLE7=Blue
TTITLE8=Fleur De Lis
TTITLE9=The Charleston Hop (The Blue Steps)
EXTD=YEAR: 2008
EXTT0=
EXTT1=
EXTT2=
EXTT3=
EXTT4=
EXTT5=
EXTT6=
EXTT7=
EXTT8=
EXTT9=
PLAYORDER=
